<svg width="21" height="21" fill="none" xmlns="http://www.w3.org/2000/svg">
        <path d="M6.65951 8.30163c.33911 0 .61384.27486.61384.61414 0 .33901-.27476.61385-.61384.61385H5.37952l-.08847.00121c-1.11828.03056-2.14367.63907-2.70522 1.61147-.57607.9982-.57607 2.228-.00003 3.2261.57633.9981 1.64121 1.6128 2.79372 1.6128h6.62238l-2.36148-2.3666-.02923-.0374c-.16483-.2307-.14088-.5677.07399-.7826.2268-.2268.58992-.2409.83332-.0324l3.3996 3.4007.0324.0351c.2047.2403.1939.6019-.0329.8301l-3.4127 3.4127-.0381.041c-.1178.1171-.2633.1807-.4171.1866-.17087.0064-.33685-.0586-.45769-.1794-.12087-.1209-.18588-.2869-.17944-.458.00661-.1706.08436-.3313.21407-.4424l2.37526-2.3793H5.37951l-.09726-.0011c-1.55359-.0338-2.9804-.876-3.75978-2.2259-.795584-1.3779-.795584-3.0758 0-4.4537.7956-1.37805 2.26591-2.22697 3.85705-2.22697h1.27999ZM11.4236.749047c.228-.135724.5401-.103077.743.099824.2268.226799.2409.589919.0324.833269L9.84982 4.03542h6.62238l.1106.00137c1.1409.02832 2.2294.49402 3.0388 1.30316.835.83539 1.3042 1.9682 1.3042 3.14928 0 1.18119-.4691 2.31397-1.3043 3.14927-.8354.8353-1.9682 1.3046-3.1493 1.3046h-1.2799l-.042-.0015c-.3195-.0216-.5719-.2876-.5719-.6126 0-.3391.2748-.6139.6139-.6139h1.2799l.0885-.0012c1.1184-.0306 2.1438-.6391 2.7053-1.6116.576-.9981.576-2.2279 0-3.22599-.5763-.9981-1.6412-1.6128-2.7938-1.6128H9.84982l2.36158 2.36663.0292.03741c.1648.23062.1409.56765-.074.78251-.2268.22678-.5899.24087-.8332.03242L7.93369 5.08181l-.03233-.0351c-.20475-.24029-.19395-.60188.03286-.83012L11.3469.803937l.0374-.029192.0393-.025698Z" fill="#000"></path>
    </svg>