<svg width="20" height="21" fill="none" xmlns="http://www.w3.org/2000/svg">
        <path d="M19.174 5.72114c-.0098-.16671-.1015-.32505-.2594-.41068l-8.75-4.750034c-.149-.080568-.32858-.080568-.477 0L.937538 5.31046c-.00279.00157-.004185.00384-.006452.00523-.003488.00175-.006801.00245-.010289.00454-.152064.0905-.245016.25338-.245016.42969V15.25c0 .1829.099925.3521.261583.4394l8.750066 4.7501c.07429.0404.15625.0605.23821.0605.07956 0 .15816-.0214.23056-.0595.0029-.0005.0052.0006.0082-.001l8.75-4.75c.1615-.0872.2615-.2562.2615-.4393V5.7501c0-.01134-.0014-.01918-.002-.02877l.0001-.00019ZM9.92567 1.56861 13.253 3.37492 5.55068 7.5562l-3.3273-1.80631 7.70229-4.18128ZM9.42571 19.1598l-7.75006-4.2069V6.59035l3.37512 1.83229v2.93106l.99799.542c.00018-.0069.00192-.0137.00192-.0205V8.96514L9.4258 10.7973l-.00009 8.3625Zm.49996-9.22862L6.59886 8.12487l7.70184-4.18128 3.3273 1.8063-7.70233 4.18129Zm8.25003 5.02192-7.75 4.2069v-8.3626l7.75-4.20723v8.36293Z" fill="#000"></path>
    </svg>